<?xml version="1.0" encoding="UTF-8"?>
<svg id="Layer_2" data-name="Layer 2" xmlns="http://www.w3.org/2000/svg" viewBox="0 0 575.36 413.26">
  <defs>
    <style>
      .cls-1 {
        fill: #fff;
      }
    </style>
  </defs>
  <g id="Layer_1-2" data-name="Layer 1">
    <g id="qlTL7e.tif">
      <g>
        <path d="M483.31,52.45c13.15.27,26.89,5.46,37.74,12.7,3.44,2.3,9.32,8.53,12.12,9.86,2.64,1.25,7.17,1.77,10.62,3.37,37.59,17.4,33.57,45.28,28.01,81.3-12.23,79.17-65.17,146.67-135.06,183.61-1.4,21.49-8.5,33.43-26.8,44.13-58.41,34.14-185.77,34.91-243.71-.36-16.44-10.01-27.03-23.52-26.11-43.74C68.78,306.6,17.07,240.69,4,160.67-1.91,124.52-6.13,99.51,28.38,78.74c7.31-4.4,21.7-8.39,26.8-12.16,2.42-1.79,3.81-5.7,5.96-8.03,18.65-20.31,35.65-25.67,63.45-24.45,38.92-58.4,107.76-28.32,156.4-1.49,8.55-3.54,16.52-8.73,25.43-11.47,19.26-5.91,39.38-4.34,58.26,2.25,7.85-8.12,15.66-14.45,26.34-18.55,39.72-15.24,81.9,6.73,92.29,47.59ZM140.55,39.57l15.28,4.88c28.91-25.99,70.68-15.59,93.24,13.04l17.32-14.41c.01-2.79-40.04-19.74-45.4-21.51-25.43-8.4-51.62-11.23-72.98,8-1.66,1.49-9.05,8.14-7.47,10.01ZM407.04,15.88c-10.41,1.25-20.25,7.45-28.75,13.22,1.42,2.75,12.07,11.64,14.24,11.34,1.77-.25,4.6-2.65,6.76-3.34,21.04-6.71,40.65-.11,52.58,18.36,2.84-1.85,16.19-1.43,16.3-3.39-10.61-26.54-32.5-39.63-61.13-36.19ZM268.39,86.54c19.8-28.84,61.07-51.79,93.25-26.8,5.63,4.37,12.87,13.35,16.48,19.48,1.81,3.07,2.63,8.17,5.14,10.84,2.19,2.34,7.2,3.81,9.7,6.34l11.09-11.51c-18.07-42.79-61.32-66.21-105.7-44.82-17.44,8.4-30.25,23.03-45.96,33.96l-.97,2.01,16.96,10.5ZM233.45,64.55c1.43-1.27-7.98-9.28-9.25-10.22-16.83-12.36-36.23-13.59-54.67-3.75-1.43,1.54,3.37,3.58,4.33,4.14,13.32,7.81,21.69,9.28,37.06,9.83,7.5.26,15.05-.18,22.54,0ZM52.65,117c-.57,5.74,0,13.01,0,18.98,0,.17-2.14,1.75-.5,2.49l14.96-16.01c2.26-13.79,6.86-29.12,16-39.95,17.95-21.26,47.28-18.74,67.98-2.95l20.44-8.04c-25.12-19.99-67.36-33.29-93.91-8.49-12.48,11.66-23.29,37.13-24.96,53.96ZM436.23,61.54c1.15-1.67-6.48-7.48-8.05-8.41-8.58-5.07-16.68-4.23-25.91-1.56l13.51,22.97,20.45-13.01ZM362.3,83.54c2.38-3.21-12.66-14.08-15.94-15.52-27.23-11.89-50.21,7.74-66.95,27.01,2.58,1.93,6.09,7.88,9.42,7.55.97-.1,13-9.57,15.86-11.22,17.1-9.84,38.46-14.32,57.6-7.82ZM538.91,139.28c.06-18.28-4.4-40.89-17.74-54.28-18.98-19.06-47.41-22.55-71.94-12.94-17.38,6.81-30.95,20.11-42.95,33.95l13.43,12.49c11.99-16.83,29.37-32.13,50.99-33.95,36.39-3.06,53.28,30.52,55.43,61.92l12.77-7.19ZM266.29,128.36l9.98-13.54c.52-3.45-22.02-19.39-25.92-21.71-41.98-24.98-86.11-14.42-117.77,20.9l17.36,9.42c28.49-34.5,69.75-33.57,102.96-5.9,2.57,2.14,10.7,12.38,13.39,10.82ZM136.56,87.55c-23.43-13.32-47.74-1.25-51.93,24.96,8.16-2.8,14.79-4.1,23.46-3.98,3.52.05,6.05,2.11,10.27.32,1.51-.64,5.1-6.63,6.71-8.34,1.69-1.79,12.57-11.5,11.5-12.96ZM45.65,86.54c-29.44,11.11-40.34,36.44-8.48,53.93.3-18.44,1.63-36.66,8.48-53.93ZM459.21,169.45c.34-1.96-1.31-2.84-2.52-3.96-10-9.2-24.84-17.11-35.89-26.04-26.9-21.75-49.16-52.38-89.29-43.26-42.42,9.64-54.26,57.06-93.37,73.45-63.48,26.6-77.1-41.43-128.16-46.01-21.62-1.94-37.52,11.9-49.29,28.36l16.26,6.35c19.93-26.73,46.5-18.54,67.15,2.07,3.75,3.74,8.64,11.41,12.39,14.61s29.86,5.76,36.53,6.42c12.79,1.26,28.19,2.67,40.91,3.05,12.65.37,15.47,1.01,25.83-6.22,32.2-22.48,54-80.59,101.55-64.23,18.57,6.39,39.45,30.78,55.49,43.41,6.95,5.47,14.47,10.15,21.5,15.51l20.93-3.5ZM546.12,96.53l7.49,30.94c9.08-10.52,5.98-20.76-3.99-28.95-1.13-.93-1.61-2.43-3.49-1.99ZM512.06,153.39c-.45-18.91-7.71-47-28.08-53.17-22.11-6.69-40.04,11.29-52.67,26.91-.36,2.05,11.78,11.49,13.27,11.25,5.59-5.67,8-11.52,15.33-15.68,26.28-14.91,37.33,14.22,36.27,35.77l15.89-5.08ZM255.42,138.5c-9.39-6.02-16.93-15.12-27.29-20.17-24.21-11.82-48.38-6.74-66.53,12.79l12.41,12.11c22.39-19.87,47.55-12.23,66.09,8.1,1.89.37,13.24-8.94,14.71-10.81.49-.62,1.14-.42.62-2.01ZM276.41,185.44h23.47c12.65-9.04,22.72-33.76,37.64-38.28,24.85-7.52,36.97,19.5,52.48,33.12l27.24-2.85c-7.27-6.92-15.45-12.84-22.99-19.46-30.88-27.11-48.08-50.29-84.41-10.52-11.23,12.29-20.91,26.63-33.45,37.98ZM468.94,134.73c-3.43.92-11.46,9.63-10.6,13.03,6.2,6.23,13.74,9.62,18.81,17.17,6.38.37,5.34-5.15,5.01-9.96-.51-7.55-2.6-23.1-13.22-20.25ZM559.09,144.48c-1.58-.31-2.3.17-3.53.96-4.49,2.85-8.66,7.17-13.77,10.2-52.69,31.27-148.91,41.86-209.9,43.83-58.15,1.87-121.27.41-178.68-8.2-46.66-7-96.07-18.26-135.03-45.78-.7,10.75,2.27,22.47,4.99,32.97,39.23,151.05,202.23,204.9,343.32,173.51,102.02-22.7,180.15-102.32,192.6-207.48ZM197.23,146.71c-3.7.63-13.06,4.26-7.43,7.95,8.83,5.8,24.41,8.22,33.64,2.3-6.88-7.79-15.57-12.06-26.21-10.25ZM134.56,172.44c-7.36-9.59-21.29-19.66-33.98-15.49-1.44.47-7.47,4-7.96,5.02-.83,1.71,2.4,2.16,3.46,2.51,11.97,3.86,26.05,6.4,38.49,7.96ZM366.73,177.02c-10.32-12.65-19.78-25.47-33.9-7.59l-10.47,14.99,46.31-2.12c3.54-.95-1.06-4.21-1.94-5.28ZM420.24,350.28c-77.09,32.36-171.89,32.8-250.7,5.47-4.37-1.51-9.33-5.23-14.02-4.96,1.03,11.5,12.95,20.4,22.32,25.63,51.25,28.65,168.95,28.17,220.45.35,9.89-5.34,22.18-14.02,21.95-26.49Z"/>
        <path class="cls-1" d="M559.09,144.48c-12.45,105.16-90.58,184.78-192.6,207.48-141.09,31.39-304.09-22.46-343.32-173.51-2.73-10.49-5.7-22.22-4.99-32.97,38.96,27.52,88.36,38.79,135.03,45.78,57.41,8.61,120.53,10.07,178.68,8.2,61-1.96,157.22-12.55,209.9-43.83,5.11-3.03,9.29-7.35,13.77-10.2,1.23-.78,1.94-1.27,3.53-.96Z"/>
        <path class="cls-1" d="M459.21,169.45l-20.93,3.5c-7.03-5.35-14.55-10.04-21.5-15.51-16.05-12.63-36.92-37.02-55.49-43.41-47.55-16.36-69.35,41.75-101.55,64.23-10.36,7.23-13.18,6.59-25.83,6.22-12.71-.37-28.12-1.78-40.91-3.05-6.68-.66-32.69-3.14-36.53-6.42s-8.64-10.87-12.39-14.61c-20.65-20.61-47.22-28.81-67.15-2.07l-16.26-6.35c11.77-16.46,27.67-30.3,49.29-28.36,51.06,4.58,64.68,72.61,128.16,46.01,39.11-16.39,50.96-63.82,93.37-73.45,40.13-9.12,62.39,21.51,89.29,43.26,11.05,8.94,25.89,16.84,35.89,26.04,1.21,1.12,2.86,2,2.52,3.96Z"/>
        <path class="cls-1" d="M420.24,350.28c.23,12.48-12.05,21.15-21.95,26.49-51.51,27.82-169.2,28.3-220.45-.35-9.37-5.24-21.29-14.13-22.32-25.63,4.69-.27,9.65,3.45,14.02,4.96,78.81,27.33,173.61,26.88,250.7-5.47Z"/>
        <path class="cls-1" d="M268.39,86.54l-16.96-10.5.97-2.01c15.71-10.93,28.52-25.55,45.96-33.96,44.38-21.39,87.63,2.04,105.7,44.82l-11.09,11.51c-2.5-2.53-7.51-4-9.7-6.34-2.51-2.68-3.33-7.77-5.14-10.84-3.61-6.13-10.85-15.11-16.48-19.48-32.18-24.98-73.45-2.04-93.25,26.8Z"/>
        <path class="cls-1" d="M538.91,139.28l-12.77,7.19c-2.15-31.4-19.04-64.98-55.43-61.92-21.63,1.82-39,17.12-50.99,33.95l-13.43-12.49c12-13.83,25.57-27.14,42.95-33.95,24.53-9.61,52.96-6.12,71.94,12.94,13.34,13.39,17.8,36,17.74,54.28Z"/>
        <path class="cls-1" d="M276.41,185.44c12.53-11.34,22.22-25.68,33.45-37.98,36.33-39.77,53.53-16.59,84.41,10.52,7.54,6.62,15.72,12.54,22.99,19.46l-27.24,2.85c-15.51-13.62-27.64-40.65-52.48-33.12-14.93,4.52-24.99,29.23-37.64,38.28h-23.47Z"/>
        <path class="cls-1" d="M266.29,128.36c-2.69,1.56-10.82-8.68-13.39-10.82-33.2-27.67-74.47-28.61-102.96,5.9l-17.36-9.42c31.66-35.32,75.79-45.88,117.77-20.9,3.9,2.32,26.44,18.26,25.92,21.71l-9.98,13.54Z"/>
        <path class="cls-1" d="M52.65,117c1.68-16.83,12.48-42.3,24.96-53.96,26.54-24.8,68.79-11.49,93.91,8.49l-20.44,8.04c-20.69-15.79-50.02-18.31-67.98,2.95-9.14,10.83-13.74,26.16-16,39.95l-14.96,16.01c-1.63-.75.5-2.32.5-2.49,0-5.97-.57-13.24,0-18.98Z"/>
        <path class="cls-1" d="M512.06,153.39l-15.89,5.08c1.07-21.55-9.98-50.68-36.27-35.77-7.33,4.16-9.74,10.01-15.33,15.68-1.5.25-13.63-9.2-13.27-11.25,12.64-15.62,30.57-33.6,52.67-26.91,20.37,6.17,27.63,34.25,28.08,53.17Z"/>
        <path class="cls-1" d="M140.55,39.57c-1.58-1.86,5.81-8.51,7.47-10.01,21.37-19.23,47.56-16.41,72.98-8,5.36,1.77,45.41,18.73,45.4,21.51l-17.32,14.41c-22.57-28.64-64.34-39.03-93.24-13.04l-15.28-4.88Z"/>
        <path class="cls-1" d="M255.42,138.5c.52,1.59-.13,1.38-.62,2.01-1.47,1.87-12.82,11.18-14.71,10.81-18.54-20.32-43.7-27.97-66.09-8.1l-12.41-12.11c18.15-19.53,42.32-24.61,66.53-12.79,10.35,5.05,17.9,14.16,27.29,20.17Z"/>
        <path class="cls-1" d="M407.04,15.88c28.63-3.43,50.52,9.66,61.13,36.19-.11,1.96-13.46,1.54-16.3,3.39-11.93-18.47-31.54-25.07-52.58-18.36-2.16.69-4.99,3.09-6.76,3.34-2.17.3-12.82-8.59-14.24-11.34,8.49-5.77,18.33-11.97,28.75-13.22Z"/>
        <path class="cls-1" d="M362.3,83.54c-19.14-6.5-40.5-2.02-57.6,7.82-2.86,1.64-14.89,11.12-15.86,11.22-3.33.33-6.84-5.62-9.42-7.55,16.74-19.27,39.71-38.89,66.95-27.01,3.28,1.43,18.32,12.31,15.94,15.52Z"/>
        <path class="cls-1" d="M136.56,87.55c1.07,1.45-9.81,11.17-11.5,12.96s-5.2,7.7-6.71,8.34c-4.22,1.79-6.75-.27-10.27-.32-8.67-.12-15.3,1.18-23.46,3.98,4.2-26.21,28.51-38.28,51.93-24.96Z"/>
        <path class="cls-1" d="M233.45,64.55c-7.49-.18-15.04.27-22.54,0-15.37-.54-23.74-2.01-37.06-9.83-.95-.56-5.76-2.6-4.33-4.14,18.44-9.84,37.84-8.61,54.67,3.75,1.27.93,10.68,8.95,9.25,10.22Z"/>
        <path class="cls-1" d="M45.65,86.54c-6.85,17.27-8.18,35.5-8.48,53.93-31.86-17.5-20.97-42.82,8.48-53.93Z"/>
        <path class="cls-1" d="M366.73,177.02c.88,1.08,5.49,4.33,1.94,5.28l-46.31,2.12,10.47-14.99c14.12-17.88,23.58-5.06,33.9,7.59Z"/>
        <path class="cls-1" d="M436.23,61.54l-20.45,13.01-13.51-22.97c9.23-2.68,17.33-3.51,25.91,1.56,1.57.93,9.2,6.74,8.05,8.41Z"/>
        <path class="cls-1" d="M468.94,134.73c10.62-2.86,12.71,12.69,13.22,20.25.33,4.8,1.37,10.32-5.01,9.96-5.07-7.55-12.61-10.94-18.81-17.17-.86-3.4,7.17-12.11,10.6-13.03Z"/>
        <path class="cls-1" d="M134.56,172.44c-12.44-1.57-26.52-4.1-38.49-7.96-1.06-.34-4.29-.8-3.46-2.51.5-1.02,6.53-4.55,7.96-5.02,12.7-4.17,26.63,5.9,33.98,15.49Z"/>
        <path class="cls-1" d="M197.23,146.71c10.64-1.81,19.33,2.46,26.21,10.25-9.24,5.92-24.81,3.5-33.64-2.3-5.63-3.7,3.73-7.33,7.43-7.95Z"/>
        <path class="cls-1" d="M546.12,96.53c1.88-.43,2.37,1.07,3.49,1.99,9.98,8.19,13.07,18.44,3.99,28.95l-7.49-30.94Z"/>
      </g>
    </g>
  </g>
</svg>